<?xml version="1.0" encoding="UTF-8" standalone="no"?>
<svg
   xmlns:dc="http://purl.org/dc/elements/1.1/"
   xmlns:cc="http://creativecommons.org/ns#"
   xmlns:rdf="http://www.w3.org/1999/02/22-rdf-syntax-ns#"
   xmlns:svg="http://www.w3.org/2000/svg"
   xmlns="http://www.w3.org/2000/svg"
   id="svg8"
   version="1.1"
   viewBox="0 0 80.697913 72.760413"
   height="275"
   width="305">
  <defs
     id="defs2" />
  <metadata
     id="metadata5">
    <rdf:RDF>
      <cc:Work
         rdf:about="">
        <dc:format>image/svg+xml</dc:format>
        <dc:type
           rdf:resource="http://purl.org/dc/dcmitype/StillImage" />
        <dc:title></dc:title>
      </cc:Work>
    </rdf:RDF>
  </metadata>
  <g
     transform="translate(0,-224.23958)"
     id="layer1">
    <g
       style=""
       transform="translate(-21.327838,204.48574)"
       id="g863">
      <ellipse
         style="opacity:1;fill:#5f8dd3;fill-opacity:1;"
         id="path859"
         cx="58.302826"
         cy="61.946056"
         rx="32.316963"
         ry="27.072544">
        <animate attributeName="opacity" values="0;1;0" dur="1s" repeatCount="indefinite"></animate>
      </ellipse>
      <path
         style="fill:#5c2d91;fill-opacity:1;"
         d="M 45.605139,91.446605 C 34.441349,89.663511 25.11259,80.552808 22.76005,69.541309 19.61295,57.430092 25.03173,43.707274 35.742109,37.179576 c 5.13975,-3.382538 11.31754,-4.623635 17.39795,-4.517807 6.18197,-0.366196 12.75146,0.550588 18.42758,-2.520256 3.224,-0.834878 6.57389,-5.260696 8.71259,-5.504168 -0.22988,4.221739 -2.20563,8.02721 -3.97055,11.771281 3.89272,-0.06959 7.89022,-2.476182 11.17493,-4.66294 3.80522,-2.813662 6.45699,-6.80629 8.85696,-10.806814 2.71928,0.176284 3.2973,6.416203 4.146631,9.13461 2.84664,15.838333 -4.271681,32.612104 -17.047641,42.214249 -9.93586,7.755095 -23.24101,11.354551 -35.67614,8.961975 -9.14329,-2.099498 -16.598309,-11.14568 -15.42948,-20.713674 0.80319,-9.702728 9.72878,-17.727267 19.44363,-17.57938 10.71677,-0.259172 20.37588,9.81131 19.44252,20.539647 0.69292,4.511176 -6.0085,6.823076 -7.88557,2.623366 -1.18826,-4.219231 0.10224,-8.792588 -1.02167,-13.028001 -2.32401,-4.703306 -8.2637,-3.069057 -12.45766,-3.13033 -7.64401,0.256035 -13.49238,8.9449 -10.58835,16.094407 1.93369,5.69997 8.37746,9.303369 14.23695,7.741249 2.56747,-0.186953 4.65382,-2.744042 6.4143,-3.695193 3.20779,4.613665 10.99039,4.686705 14.17795,-0.01589 3.79354,-5.575209 2.11049,-12.997725 -0.44543,-18.724532 -3.93452,-7.523646 -11.7037,-13.129096 -20.3051,-13.551222 C 42.186959,36.834229 31.0995,44.52471 28.06825,55.305052 c -2.43293,8.471612 -0.25597,18.317612 6.280949,24.418419 5.95498,5.967543 14.71962,8.005098 22.9176,7.30232 9.22543,-0.312483 18.22279,-3.402018 26.05433,-8.207082 -8.12756,9.077549 -20.55865,13.626041 -32.61829,12.986948 -1.70208,-0.04612 -3.41362,-0.08969 -5.0977,-0.359052 z m 2.7423,-22.69577 c -4.59481,-1.462326 -6.41294,-7.947708 -2.98894,-11.416319 3.11867,-3.566832 8.11522,-2.2535 12.29805,-2.388028 -0.11512,3.170592 0.29843,6.409045 -0.33157,9.523297 -1.33332,3.619415 -5.34848,5.444223 -8.97754,4.28105 z"
         id="path853" />
    </g>
  </g>
</svg>
