<?xml version="1.0" encoding="UTF-8" standalone="no"?>
<svg
   xmlns:dc="http://purl.org/dc/elements/1.1/"
   xmlns:cc="http://creativecommons.org/ns#"
   xmlns:rdf="http://www.w3.org/1999/02/22-rdf-syntax-ns#"
   xmlns:svg="http://www.w3.org/2000/svg"
   xmlns="http://www.w3.org/2000/svg"
   id="svg8"
   version="1.1"
   viewBox="0 0 23.01875 7.9375005"
   height="30"
   width="87">
  <defs
     id="defs2" />
  <metadata
     id="metadata5">
    <rdf:RDF>
      <cc:Work
         rdf:about="">
        <dc:format>image/svg+xml</dc:format>
        <dc:type
           rdf:resource="http://purl.org/dc/dcmitype/StillImage" />
        <dc:title></dc:title>
      </cc:Work>
    </rdf:RDF>
  </metadata>
  <g
     transform="translate(0,-289.06249)"
     id="layer1">
    <g
       transform="translate(-4.6302083,284.99405)"
       id="text848"
       style="font-style:normal;font-weight:normal;font-size:7.37837505px;line-height:1.25;font-family:sans-serif;letter-spacing:0px;word-spacing:0px;fill:#d45500;fill-opacity:1;stroke:none;stroke-width:0.18445937"
       aria-label="Back">
      <path
         d="m 27.446283,7.1157044 c -0.176376,0.7632547 -0.602061,1.2454349 -0.96198,1.5663336 0.868845,1.2086034 0.992769,1.672908 0.9627,2.230575 h -1.446106 c 0.48618,-0.33915 0.187808,-0.9398175 -0.358806,-1.6232322 L 25.400708,9.584804 v 1.304185 h -1.314993 c 0.149063,-0.125112 0.345378,-0.19057 0.366164,-0.477625 L 24.39711,6.4884062 C 24.3688,6.1398831 24.198393,6.1229312 24.085715,5.9712737 c 0.386692,0 0.825023,-0.02642 1.314993,-0.07926 v 3.0767247 c 0.505228,-0.6930598 1.484753,-1.7131078 1.058918,-1.8412223 z m -3.818114,2.321388 c -0.08178,1.0474556 -0.826712,1.5190106 -1.509544,1.5311566 -1.196103,0 -1.794155,-0.606458 -1.794155,-1.8193744 0,-0.6076591 0.174131,-1.0916248 0.522394,-1.451897 0.348263,-0.3626741 0.815416,-0.5440111 1.401459,-0.5440111 0.843037,0 1.264556,0.3818886 1.264556,1.1456657 l -0.616066,0.2990259 0.0072,-0.3458613 c 0,-0.518792 -0.174132,-0.778188 -0.522395,-0.778188 -0.461149,0 -0.892523,0.5328082 -0.892523,1.5511777 0.03129,0.615946 0.228976,1.5148725 0.884314,1.5165145 0.487568,0 0.743164,-0.209533 0.743164,-0.8412099 z M 20.252418,10.34588 c -0.121043,0.538306 -0.63528,0.600753 -0.940311,0.600753 -0.451541,0 -0.730151,-0.140506 -0.835831,-0.421518 -0.218565,0.293021 -0.533203,0.439532 -0.943913,0.439532 -0.766179,0 -1.149269,-0.355469 -1.149269,-1.0664062 0,-0.5404083 0.350665,-0.919895 1.051995,-1.1384602 0.643687,-0.2017524 0.96553,-0.4443357 0.96553,-0.7277499 0,-0.3722813 -0.18494,-0.4403043 -0.554819,-0.4403043 -0.606981,0.093437 -0.78356,0.5810005 -0.126998,0.6800402 l -1.065503,0.062893 c -0.01681,-0.1128853 -0.02522,-0.2185651 -0.02522,-0.3170395 0,-0.5764356 0.525998,-0.8646534 1.577993,-0.8646534 0.999155,0 1.498732,0.2690033 1.498732,0.8070098 v 2.2048655 c 0,0.225771 0.07325,0.338656 0.219766,0.338656 z M 18.365055,8.9989755 c -0.271405,0.1585198 -0.666967,0.3660625 -0.666967,0.7407456 0,0.4803629 0.09367,0.7205449 0.281012,0.7205449 0.273807,0 0.396339,-0.237997 0.410711,-0.7133395 0,0 0.005,-0.4877309 -0.02476,-0.747951 z m -7.11522,1.9136375 c 0.319722,-0.102777 0.620911,-0.224086 0.754546,-0.512949 L 11.983261,6.8345236 C 11.981083,6.4669445 11.478763,6.1748347 11.261646,6.053956 l 2.930993,-0.082682 c 1.126003,-0.031764 1.689677,0.402304 1.689677,1.2069119 0,0.5716319 -0.339857,0.9379087 -1.01957,1.0988303 0.819019,0.1633234 1.228528,0.5980519 1.228528,1.3041854 0,0.8718584 -0.551216,1.3077874 -1.653649,1.3077874 z m 2.18263,-0.430731 h 0.407108 c 0.533203,0 0.799804,-0.305031 0.799804,-0.9150916 0,-0.6989281 -0.275008,-1.0483922 -0.825023,-1.0483922 h -0.381889 z m 0,-2.3705914 h 0.439532 c 0.405907,0 0.60886,-0.3002268 0.60886,-0.9006805 0,-0.5548192 -0.214962,-0.8322288 -0.644887,-0.8322288 H 13.432465 Z M 9.8221549,11.873525 4.794147,8.0389981 9.671816,4.0391884 8.5359205,7.2787037 10.95805,7.3184558 10.891233,8.8682246 8.7029639,8.8323488 Z"
         style="font-style:normal;font-variant:normal;font-weight:normal;font-stretch:normal;font-family:'Britannic Bold';-inkscape-font-specification:'Britannic Bold, ';fill:#d45500;stroke-width:0.18445937"
         id="path856" />
    </g>
  </g>
</svg>
