<?xml version="1.0" encoding="UTF-8" standalone="no"?>
<svg
   xmlns:dc="http://purl.org/dc/elements/1.1/"
   xmlns:cc="http://creativecommons.org/ns#"
   xmlns:rdf="http://www.w3.org/1999/02/22-rdf-syntax-ns#"
   xmlns:svg="http://www.w3.org/2000/svg"
   xmlns="http://www.w3.org/2000/svg"
   id="svg8"
   version="1.1"
   viewBox="0 0 84.666662 10.583333"
   height="40"
   width="320">
  <defs
     id="defs2" />
  <metadata
     id="metadata5">
    <rdf:RDF>
      <cc:Work
         rdf:about="">
        <dc:format>image/svg+xml</dc:format>
        <dc:type
           rdf:resource="http://purl.org/dc/dcmitype/StillImage" />
        <dc:title></dc:title>
      </cc:Work>
    </rdf:RDF>
  </metadata>
  <g
     transform="translate(0,-286.41665)"
     id="layer1">
    <g
       transform="translate(-41.010417,96.410791)"
       id="text817"
       style="font-style:normal;font-weight:normal;font-size:10.58333302px;line-height:1.25;font-family:sans-serif;letter-spacing:0px;word-spacing:0px;fill:#000000;fill-opacity:1;stroke:none;stroke-width:0.26458332"
       aria-label="RecipeApplication">
      <path
         id="path831"
         transform="scale(0.26458333)"
         d="m 158.37305,723.11328 v 26.66016 h 1.21875 v -26.66016 z m 2.93359,0 v 26.66016 h 4.80078 v -12.8125 h 1.32813 c 2.47396,0 3.71093,1.53647 3.71093,4.60937 l 0.0391,1.99219 0.0391,1.58203 c -0.90265,8.78837 9.91239,5.0911 10.31641,-0.86133 -2.22841,2.65255 -2.37369,2.54752 -2.6211,-0.44726 -0.20833,-2.51305 -0.60547,-4.20574 -1.1914,-5.07813 -0.57292,-0.87239 -1.84245,-1.67316 -3.8086,-2.40234 3.82813,-0.97656 5.74219,-3.0794 5.74219,-6.30859 0,-2.10936 -0.89193,-3.78906 -2.67578,-5.03907 -1.78386,-1.263 -4.16667,-1.89453 -7.14844,-1.89453 z m 4.80078,2.46094 h 1.5625 c 2.92969,0 4.39453,1.52994 4.39453,4.58984 0,3.05991 -1.46484,4.58985 -4.39453,4.58985 h -1.5625 z"
         style="fill:#d45500;stroke-width:0.99999994" />
      <path
         id="path833"
         style="fill:#d45500"
         d="m 52.24338,196.47067 0.759644,0.22221 c -0.07924,1.20234 -0.788927,1.80351 -2.129069,1.80351 -1.736328,0 -2.604492,-0.86644 -2.604492,-2.59933 0,-0.8406 0.230821,-1.52962 0.692464,-2.06705 0.461643,-0.53744 1.052476,-0.80616 1.772501,-0.80616 1.505507,0 2.25826,0.97152 2.25826,2.91456 h -2.749186 c 0,1.36425 0.346232,2.04638 1.038696,2.04638 0.647678,0 0.874963,-0.29034 1.071743,-0.72324 0.196781,-0.43289 -0.103669,-0.65652 -0.110556,-0.79088 z m -2.005045,-1.11621 h 1.126546 c 0,-1.21267 -0.18259,-1.81901 -0.54777,-1.81901 -0.330729,0 -0.516765,0.44959 -0.558106,1.34876 z" />
      <path
         id="path835"
         style="fill:#d45500"
         d="m 57.50404,196.05209 0.628774,0.6939 c -0.196088,1.10206 -0.663153,1.74106 -1.998167,1.74523 -1.715657,0 -2.573486,-0.86989 -2.573486,-2.60966 0,-0.87161 0.249769,-1.56579 0.749308,-2.08256 0.499539,-0.52021 1.16961,-0.78031 2.010213,-0.78031 1.209229,0 1.813843,0.54777 1.813843,1.64331 l -0.883667,0.42891 0.01033,-0.49609 c 0,-0.74414 -0.249769,-1.11621 -0.749308,-1.11621 -0.661459,0 -0.992188,0.73036 -0.992188,2.19108 0.0083,0.82871 0.120864,1.96763 0.713381,2.06093 0.699314,0.11012 1.333006,-0.15235 1.333006,-1.05841 0,-0.12747 -0.02067,-0.33417 -0.06201,-0.62012 z" />
      <path
         id="path837"
         style="fill:#d45500"
         d="m 59.948335,191.148 c 0.585666,0 0.878499,0.22738 0.878499,0.68213 0,0.45475 -0.292833,0.68213 -0.878499,0.68213 -0.585666,0 -0.878499,-0.22738 -0.878499,-0.68213 0,-0.45475 0.292833,-0.68213 0.878499,-0.68213 z m -0.956014,7.22953 v -4.73134 c 1.226946,-0.16536 1.88619,-0.612 1.88619,-0.612 v 5.34334 z" />
      <path
         id="path839"
         style="fill:#d45500"
         d="m 61.197719,200.20652 c 1.463395,-0.65836 0.734991,-7.0328 0.734991,-7.0328 0.53399,0 1.16272,-0.0448 1.88619,-0.13436 v 0.78548 c 0.354845,-0.5271 0.785481,-0.79065 1.29191,-0.79065 0.54088,0 0.97324,0.24805 1.297079,0.74414 0.323839,0.49265 0.485758,1.15411 0.485758,1.98438 0,1.83623 -0.611504,2.75435 -1.834513,2.75435 -0.502984,0 -0.916395,-0.18948 -1.240234,-0.56844 v 2.19108 z m 3.225795,-6.41269 c -0.416857,0 -0.625285,0.64768 -0.625285,1.94304 0,1.34703 0.199816,2.02055 0.599447,2.02055 0.35829,0 0.537435,-0.67352 0.537435,-2.02055 0,-1.29536 -0.170532,-1.94304 -0.511597,-1.94304 z" />
      <path
         id="path841"
         style="fill:#d45500"
         d="m 72.445174,196.32672 c -0.07924,1.20234 -1.048786,2.16967 -2.388928,2.16967 -1.736328,0 -2.604492,-0.86644 -2.604492,-2.59933 0,-0.8406 0.230821,-1.52962 0.692464,-2.06705 0.461643,-0.53744 1.052476,-0.80616 1.772501,-0.80616 1.505507,0 2.25826,0.97152 2.25826,2.91456 h -2.749186 c 0,1.36425 0.346232,2.04638 1.038697,2.04638 0.647677,0 0.971516,-0.38585 0.971516,-1.15755 z m -3.024548,-0.97226 h 1.126546 c 0,-1.21267 -0.18259,-1.81901 -0.54777,-1.81901 -0.330729,0 -0.516765,0.44959 -0.558106,1.34876 z" />
      <path
         id="path843"
         style="fill:#668000"
         d="m 76.278088,191.3237 c 0.654431,2.35179 0.857015,6.4803 2.105445,6.59317 -0.477975,0.353 -1.00863,0.66477 -2.198463,0.46066 -0.203738,-0.0671 -0.295029,-0.90959 -0.418579,-1.52962 H 73.64259 l -0.449585,1.52962 H 72.39202 l 2.087728,-7.05383 z m -2.43396,4.81624 h 1.73116 l -0.83199,-3.12642 z" />
      <path
         id="path845"
         style="fill:#668000"
         d="m 78.512798,200.12299 c 0.778121,-0.61899 0.183748,-6.94927 0.183748,-6.94927 0.53399,0 1.16272,-0.0448 1.88619,-0.13436 v 0.78548 c 0.354845,-0.5271 0.785481,-0.79065 1.29191,-0.79065 0.54088,0 0.97324,0.24805 1.297079,0.74414 0.323839,0.49265 0.485758,1.15411 0.485758,1.98438 0,1.83623 -0.611504,2.75435 -1.834513,2.75435 -0.502984,0 -0.916395,-0.18948 -1.240234,-0.56844 v 2.19108 z m 2.674552,-6.32916 c -0.416857,0 -0.625285,0.64768 -0.625285,1.94304 0,1.34703 0.199816,2.02055 0.599447,2.02055 0.35829,0 0.537435,-0.67352 0.537435,-2.02055 0,-1.29536 -0.170532,-1.94304 -0.511597,-1.94304 z" />
      <path
         id="path847"
         style="fill:#668000"
         d="m 84.242512,200.1564 c 0.675084,-1.09614 0.224878,-6.96911 0.200452,-6.98268 0.53399,0 1.16272,-0.0448 1.88619,-0.13436 v 0.78548 c 0.354845,-0.5271 0.785481,-0.79065 1.29191,-0.79065 0.54088,0 0.97324,0.24805 1.297079,0.74414 0.323839,0.49265 0.485758,1.15411 0.485758,1.98438 0,1.83623 -0.611504,2.75435 -1.834513,2.75435 -0.502984,0 -0.916395,-0.18948 -1.240234,-0.56844 v 2.19108 z m 2.691256,-6.36257 c -0.416857,0 -0.625285,0.64768 -0.625285,1.94304 0,1.34703 0.199816,2.02055 0.599447,2.02055 0.35829,0 0.537435,-0.67352 0.537435,-2.02055 0,-1.29536 -0.170532,-1.94304 -0.511597,-1.94304 z" />
      <path
         id="path849"
         style="fill:#668000"
         d="m 91.957454,190.51164 0.118118,7.86589 h -1.88619 l 0.03341,-6.41906 c 0.640621,-0.0767 1.220032,-0.55122 1.734662,-1.44683 z" />
      <path
         id="path851"
         style="fill:#668000"
         d="m 94.09612,191.148 c 0.585666,0 0.878499,0.22738 0.878499,0.68213 0,0.45475 -0.292833,0.68213 -0.878499,0.68213 -0.585666,0 -0.878499,-0.22738 -0.878499,-0.68213 0,-0.45475 0.292833,-0.68213 0.878499,-0.68213 z m -0.956014,7.22953 v -5.20381 c 1.203323,0.11812 1.933437,-0.51751 1.933437,-0.51751 l -0.04725,5.72132 z" />
      <path
         id="path853"
         style="fill:#668000"
         d="m 100.62047,195.86902 c 0,1.88987 -0.747092,2.6222 -2.194035,2.6222 -1.715657,0 -2.573486,-0.86989 -2.573486,-2.60966 0,-0.87161 0.249769,-1.56579 0.749308,-2.08256 0.499539,-0.52021 1.16961,-0.78031 2.010213,-0.78031 1.209227,0 1.81384,0.54777 1.81384,1.64331 l -0.883664,0.42891 0.01033,-0.49609 c 0,-0.74414 -0.249769,-1.11621 -0.749308,-1.11621 -0.661458,0 -0.992187,0.73036 -0.992187,2.19108 0,0.90261 -2.47e-4,0.93214 0.141002,1.26976 0.141249,0.33417 0.450323,0.76112 0.832729,0.76112 0.699354,0 1.072655,-0.1223 1.072655,-1.02836 0.247553,-0.22679 0.762603,-0.80319 0.762603,-0.80319 z" />
      <path
         id="path855"
         style="fill:#668000"
         d="m 106.59001,197.50642 c -0.13092,1.02959 -0.9821,0.9538 -1.41963,0.9538 -0.64768,0 -1.04731,-0.20154 -1.19889,-0.60462 -0.31351,0.4203 -0.76481,0.63045 -1.35392,0.63045 -1.09899,0 -1.64848,-0.50987 -1.64848,-1.52962 0,-0.77515 0.50298,-1.31947 1.50895,-1.63297 0.92329,-0.28939 1.38493,-0.63735 1.38493,-1.04387 0,-0.53399 -0.15702,-0.64675 -0.7722,-0.56474 -0.61518,0.082 -0.90501,0.88793 -0.4208,0.87258 -0.71843,0.43534 -1.32665,0.49462 -1.34951,-0.32851 -0.0229,-0.82313 0.75447,-1.24023 2.26342,-1.24023 1.43316,0 2.14974,0.38585 2.14974,1.15755 v 3.1626 c 0,0.32384 0.10508,0.48576 0.31523,0.48576 z m -2.74255,-2.26048 c -0.11713,0.13436 -0.25321,0.24633 -0.40824,0.3359 -0.38929,0.22737 -0.58394,0.60978 -0.58394,1.14721 0,0.68902 0.13436,1.03353 0.40307,1.03353 0.39274,0 0.58911,-0.34106 0.58911,-1.02319 z" />
      <path
         id="path857"
         style="fill:#668000"
         d="m 109.68173,193.18405 v 0.58395 h -0.83715 v 3.68452 c 0,0.23083 0.0741,0.34624 0.22221,0.34624 0.10679,0 0.17053,-0.0775 0.1912,-0.23255 l 0.56105,-0.68063 c -0.14814,1.30028 -0.64374,1.54882 -1.43955,1.54882 -0.9474,0 -1.4211,-0.40308 -1.4211,-1.20923 V 193.768 h -0.63046 v -0.58395 h 0.63046 v -0.91984 c 0.65112,-0.17915 1.27985,-0.43753 1.88619,-0.77515 v 1.69499 z" />
      <path
         id="path859"
         style="fill:#668000"
         d="m 111.2527,191.148 c 0.58567,0 0.8785,0.22738 0.8785,0.68213 0,0.45475 -0.29283,0.68213 -0.8785,0.68213 -0.58567,0 -0.8785,-0.22738 -0.8785,-0.68213 0,-0.45475 0.29283,-0.68213 0.8785,-0.68213 z m -0.95602,7.22953 v -5.20381 c 1.20332,0.14174 1.93344,-0.51751 1.93344,-0.51751 l -0.0473,5.72132 z" />
      <path
         id="path861"
         style="fill:#668000"
         d="m 115.59869,193.03419 c 1.72255,0 2.58382,0.90951 2.58382,2.72852 0,1.81901 -0.86127,2.72851 -2.58382,2.72851 -1.72599,0 -2.58899,-0.9095 -2.58899,-2.72851 0,-1.81901 0.863,-2.72852 2.58899,-2.72852 z m -0.0523,0.81427 c -0.41686,0 -0.57804,0.40185 -0.57804,1.91425 0,1.51239 0.20843,2.15047 0.62529,2.15047 0.4203,0 0.70132,-0.54359 0.84306,-2.12685 0.13486,-1.50637 -0.47001,-1.93787 -0.89031,-1.93787 z" />
      <path
         id="path863"
         style="fill:#668000"
         d="m 123.90309,198.37753 h -1.88619 v -3.42245 c 0,-0.3893 -0.10852,-0.58395 -0.32557,-0.58395 -0.22048,0 -0.41168,0.15503 -0.5736,0.46509 -0.16192,0.30661 -0.24288,0.67007 -0.24288,1.09037 v 2.45094 h -1.88619 l 0.0473,-5.66817 c 1.12014,0.61422 1.76807,0.69764 1.76807,0.69764 l 0.0709,0.59871 c 0.46853,-0.64768 1.04042,-0.97152 1.71565,-0.97152 0.87506,0 1.31259,0.44442 1.31259,1.33325 z" />
    </g>
  </g>
</svg>
